<svg width="97" height="29" viewBox="0 0 97 29" fill="none" xmlns="http://www.w3.org/2000/svg">
<path d="M1 8.77678C15.9285 12.4805 20.6069 3.10233 33.9547 1.44654C43.2204 0.297133 47.6626 8.90374 55.5457 10.4684C56.8457 10.7264 58.2174 10.697 59.5229 10.4684C64.6816 9.56494 69.6529 6.55478 74.8639 7.08519C80.6992 7.67913 83.2624 16.9479 86.2276 20.0541C87.7466 21.6453 90.0155 22.3095 91.9094 23.4373" stroke="url(#paint0_linear)" stroke-width="1.02904"/>
<path d="M92.4508 21.8954C93.8675 21.8954 95.0293 23.0371 95.0293 24.4621C95.0293 25.887 93.8675 27.0288 92.4508 27.0288C91.0342 27.0288 89.8723 25.887 89.8723 24.4621C89.8723 23.0371 91.0342 21.8954 92.4508 21.8954Z" fill="#FB5D5D" stroke="#EFF3FC" stroke-width="2.05808"/>
<defs>
<linearGradient id="paint0_linear" x1="89.3171" y1="12.0742" x2="1" y2="12.0742" gradientUnits="userSpaceOnUse">
<stop stop-color="#FC297D"/>
<stop offset="1" stop-color="#E36674"/>
</linearGradient>
</defs>
</svg>
