<svg width="18" height="18" viewBox="0 0 18 18" fill="none" xmlns="http://www.w3.org/2000/svg">
<path d="M16.418 2.10938H15.8906V1.58203C15.8906 0.709699 15.1809 0 14.3086 0C13.4363 0 12.7266 0.709699 12.7266 1.58203V2.10938H10.6172V1.58203C10.6172 0.709699 9.90749 0 9.03516 0C8.16282 0 7.45312 0.709699 7.45312 1.58203V2.10938H5.27344V1.58203C5.27344 0.709699 4.56374 0 3.69141 0C2.81907 0 2.10938 0.709699 2.10938 1.58203V2.10938H1.58203C0.709699 2.10938 0 2.81907 0 3.69141C0 3.76791 0 16.2157 0 16.418C0 17.2903 0.709699 18 1.58203 18H16.418C17.2903 18 18 17.2903 18 16.418C18 16.3208 18 3.86276 18 3.69141C18 2.81907 17.2903 2.10938 16.418 2.10938ZM13.7812 1.58203C13.7812 1.29125 14.0178 1.05469 14.3086 1.05469C14.5994 1.05469 14.8359 1.29125 14.8359 1.58203V3.69141C14.8359 3.98218 14.5994 4.21875 14.3086 4.21875C14.0178 4.21875 13.7812 3.98218 13.7812 3.69141V1.58203ZM8.50781 1.58203C8.50781 1.29125 8.74438 1.05469 9.03516 1.05469C9.32593 1.05469 9.5625 1.29125 9.5625 1.58203V3.69141C9.5625 3.98218 9.32593 4.21875 9.03516 4.21875C8.74438 4.21875 8.50781 3.98218 8.50781 3.69141V1.58203ZM3.16406 1.58203C3.16406 1.29125 3.40063 1.05469 3.69141 1.05469C3.98218 1.05469 4.21875 1.29125 4.21875 1.58203V3.69141C4.21875 3.98218 3.98218 4.21875 3.69141 4.21875C3.40063 4.21875 3.16406 3.98218 3.16406 3.69141V1.58203ZM16.9453 16.418C16.9453 16.7087 16.7087 16.9453 16.418 16.9453H1.58203C1.29125 16.9453 1.05469 16.7087 1.05469 16.418V7.45312H16.9453V16.418ZM16.9453 6.39844H1.05469V3.69141C1.05469 3.40063 1.29125 3.16406 1.58203 3.16406H2.10938V3.69141C2.10938 4.56374 2.81907 5.27344 3.69141 5.27344C4.56374 5.27344 5.27344 4.56374 5.27344 3.69141V3.16406H7.45312V3.69141C7.45312 4.56374 8.16282 5.27344 9.03516 5.27344C9.90749 5.27344 10.6172 4.56374 10.6172 3.69141V3.16406H12.7266V3.69141C12.7266 4.56374 13.4363 5.27344 14.3086 5.27344C15.1809 5.27344 15.8906 4.56374 15.8906 3.69141V3.16406H16.418C16.7087 3.16406 16.9453 3.40063 16.9453 3.69141V6.39844Z" fill="white"/>
<path d="M15.3633 8.50781H2.63672C2.34548 8.50781 2.10938 8.74392 2.10938 9.03516V15.3633C2.10938 15.6545 2.34548 15.8906 2.63672 15.8906H15.3633C15.6545 15.8906 15.8906 15.6545 15.8906 15.3633V9.03516C15.8906 8.74392 15.6545 8.50781 15.3633 8.50781ZM5.27344 14.8359H3.16406V12.7266H5.27344V14.8359ZM5.27344 11.6719H3.16406V9.5625H5.27344V11.6719ZM8.50781 14.8359H6.32812V12.7266H8.50781V14.8359ZM8.50781 11.6719H6.32812V9.5625H8.50781V11.6719ZM11.6719 14.8359H9.5625V12.7266H11.6719V14.8359ZM11.6719 11.6719H9.5625V9.5625H11.6719V11.6719ZM14.8359 14.8359H12.7266V12.7266H14.8359V14.8359ZM14.8359 11.6719H12.7266V9.5625H14.8359V11.6719Z" fill="white"/>
</svg>
