<svg width="17" height="20" viewBox="0 0 17 20" fill="none" xmlns="http://www.w3.org/2000/svg">
<path d="M11.625 10V9.875H11.5H8.5H8.375V10V10.6V10.725H8.5H11.5H11.625V10.6V10Z" fill="white" stroke="white" stroke-width="0.25"/>
<path d="M11.625 16.6001V16.4751H11.5H8.5H8.375V16.6001V17.2001V17.3251H8.5H11.5H11.625V17.2001V16.6001Z" fill="white" stroke="white" stroke-width="0.25"/>
<path d="M7.42539 14.2V14.075H7.30039H6.40039H6.27539V14.2V14.8V14.925H6.40039H7.30039H7.42539V14.8V14.2Z" fill="white" stroke="white" stroke-width="0.25"/>
<path d="M11.625 13V12.875H11.5H8.5H8.375V13V13.6V13.725H8.5H11.5H11.625V13.6V13Z" fill="white" stroke="white" stroke-width="0.25"/>
<path d="M13.4254 7.6001V7.4751H13.3004H12.4004H12.2754V7.6001V8.2001V8.3251H12.4004H13.3004H13.4254V8.2001V7.6001Z" fill="white" stroke="white" stroke-width="0.25"/>
<path d="M13.4254 8.80005V8.67505H13.3004H12.4004H12.2754V8.80005V9.40005V9.52505H12.4004H13.3004H13.4254V9.40005V8.80005Z" fill="white" stroke="white" stroke-width="0.25"/>
<path d="M11.625 8.80005V8.67505H11.5H8.5H8.375V8.80005V9.40005V9.52505H8.5H11.5H11.625V9.40005V8.80005Z" fill="white" stroke="white" stroke-width="0.25"/>
<path d="M7.90039 3.57495C7.00426 3.57495 6.27539 4.30382 6.27539 5.19995C6.27539 6.09609 7.00426 6.82495 7.90039 6.82495C8.79653 6.82495 9.52539 6.09609 9.52539 5.19995C9.52539 4.30382 8.79653 3.57495 7.90039 3.57495ZM7.90039 5.97495C7.47323 5.97495 7.12539 5.62712 7.12539 5.19995C7.12539 4.77279 7.47323 4.42495 7.90039 4.42495C8.32756 4.42495 8.67539 4.77279 8.67539 5.19995C8.67539 5.62712 8.32756 5.97495 7.90039 5.97495Z" fill="white" stroke="white" stroke-width="0.25"/>
<path d="M7.42539 16.6001V16.4751H7.30039H6.40039H6.27539V16.6001V17.2001V17.3251H6.40039H7.30039H7.42539V17.2001V16.6001Z" fill="white" stroke="white" stroke-width="0.25"/>
<path d="M14.5 0.875H3.7C2.93372 0.875 2.2929 1.40833 2.12219 2.12219C1.40833 2.2929 0.875 2.93372 0.875 3.7V17.5C0.875 18.3961 1.60386 19.125 2.5 19.125H13.3C14.0663 19.125 14.7071 18.5917 14.8778 17.8778C15.5917 17.7071 16.125 17.0663 16.125 16.3V2.5C16.125 1.60386 15.3961 0.875 14.5 0.875ZM14.075 17.5C14.075 17.9272 13.7272 18.275 13.3 18.275H2.5C2.07284 18.275 1.725 17.9272 1.725 17.5V3.7C1.725 3.27284 2.07284 2.925 2.5 2.925H11.375V5.2C11.375 5.43494 11.5651 5.625 11.8 5.625H14.075V17.5ZM12.225 4.775V3.52598L13.474 4.775H12.225ZM15.275 16.3C15.275 16.5691 15.1358 16.8056 14.925 16.944V5.2C14.925 5.08214 14.8768 4.97579 14.8002 4.89921L12.1011 2.20011C12.0243 2.1233 11.918 2.075 11.8 2.075H3.05603C3.19437 1.86424 3.43091 1.725 3.7 1.725H14.5C14.9272 1.725 15.275 2.07284 15.275 2.5V16.3Z" fill="white" stroke="white" stroke-width="0.25"/>
<path d="M5.625 16.6001V16.4751H5.5H2.5H2.375V16.6001V17.2001V17.3251H2.5H5.5H5.625V17.2001V16.6001Z" fill="white" stroke="white" stroke-width="0.25"/>
<path d="M13.4254 16.6001V16.4751H13.3004H12.4004H12.2754V16.6001V17.2001V17.3251H12.4004H13.3004H13.4254V17.2001V16.6001Z" fill="white" stroke="white" stroke-width="0.25"/>
<path d="M5.625 7.6001V7.4751H5.5H2.5H2.375V7.6001V8.2001V8.3251H2.5H5.5H5.625V8.2001V7.6001Z" fill="white" stroke="white" stroke-width="0.25"/>
<path d="M7.42539 7.6001V7.4751H7.30039H6.40039H6.27539V7.6001V8.2001V8.3251H6.40039H7.30039H7.42539V8.2001V7.6001Z" fill="white" stroke="white" stroke-width="0.25"/>
<path d="M11.625 7.6001V7.4751H11.5H8.5H8.375V7.6001V8.2001V8.3251H8.5H11.5H11.625V8.2001V7.6001Z" fill="white" stroke="white" stroke-width="0.25"/>
<path d="M7.42539 8.80005V8.67505H7.30039H6.40039H6.27539V8.80005V9.40005V9.52505H6.40039H7.30039H7.42539V9.40005V8.80005Z" fill="white" stroke="white" stroke-width="0.25"/>
<path d="M5.625 15.3999V15.2749H5.5H2.5H2.375V15.3999V15.9999V16.1249H2.5H5.5H5.625V15.9999V15.3999Z" fill="white" stroke="white" stroke-width="0.25"/>
<path d="M5.625 8.80005V8.67505H5.5H2.5H2.375V8.80005V9.40005V9.52505H2.5H5.5H5.625V9.40005V8.80005Z" fill="white" stroke="white" stroke-width="0.25"/>
<path d="M5.625 10V9.875H5.5H2.5H2.375V10V10.6V10.725H2.5H5.5H5.625V10.6V10Z" fill="white" stroke="white" stroke-width="0.25"/>
<path d="M7.42539 10V9.875H7.30039H6.40039H6.27539V10V10.6V10.725H6.40039H7.30039H7.42539V10.6V10Z" fill="white" stroke="white" stroke-width="0.25"/>
<path d="M13.4254 10V9.875H13.3004H12.4004H12.2754V10V10.6V10.725H12.4004H13.3004H13.4254V10.6V10Z" fill="white" stroke="white" stroke-width="0.25"/>
<path d="M5.625 11.2V11.075H5.5H2.5H2.375V11.2V11.8V11.925H2.5H5.5H5.625V11.8V11.2Z" fill="white" stroke="white" stroke-width="0.25"/>
<path d="M7.42539 11.2V11.075H7.30039H6.40039H6.27539V11.2V11.8V11.925H6.40039H7.30039H7.42539V11.8V11.2Z" fill="white" stroke="white" stroke-width="0.25"/>
<path d="M11.625 11.2V11.075H11.5H8.5H8.375V11.2V11.8V11.925H8.5H11.5H11.625V11.8V11.2Z" fill="white" stroke="white" stroke-width="0.25"/>
<path d="M13.4254 11.2V11.075H13.3004H12.4004H12.2754V11.2V11.8V11.925H12.4004H13.3004H13.4254V11.8V11.2Z" fill="white" stroke="white" stroke-width="0.25"/>
<path d="M5.625 13V12.875H5.5H2.5H2.375V13V13.6V13.725H2.5H5.5H5.625V13.6V13Z" fill="white" stroke="white" stroke-width="0.25"/>
<path d="M7.42539 13V12.875H7.30039H6.40039H6.27539V13V13.6V13.725H6.40039H7.30039H7.42539V13.6V13Z" fill="white" stroke="white" stroke-width="0.25"/>
<path d="M13.4254 13V12.875H13.3004H12.4004H12.2754V13V13.6V13.725H12.4004H13.3004H13.4254V13.6V13Z" fill="white" stroke="white" stroke-width="0.25"/>
<path d="M5.625 14.2V14.075H5.5H2.5H2.375V14.2V14.8V14.925H2.5H5.5H5.625V14.8V14.2Z" fill="white" stroke="white" stroke-width="0.25"/>
<path d="M11.625 14.2V14.075H11.5H8.5H8.375V14.2V14.8V14.925H8.5H11.5H11.625V14.8V14.2Z" fill="white" stroke="white" stroke-width="0.25"/>
<path d="M13.4254 14.2V14.075H13.3004H12.4004H12.2754V14.2V14.8V14.925H12.4004H13.3004H13.4254V14.8V14.2Z" fill="white" stroke="white" stroke-width="0.25"/>
<path d="M7.42539 15.3999V15.2749H7.30039H6.40039H6.27539V15.3999V15.9999V16.1249H6.40039H7.30039H7.42539V15.9999V15.3999Z" fill="white" stroke="white" stroke-width="0.25"/>
<path d="M11.625 15.3999V15.2749H11.5H8.5H8.375V15.3999V15.9999V16.1249H8.5H11.5H11.625V15.9999V15.3999Z" fill="white" stroke="white" stroke-width="0.25"/>
<path d="M13.4254 15.3999V15.2749H13.3004H12.4004H12.2754V15.3999V15.9999V16.1249H12.4004H13.3004H13.4254V15.9999V15.3999Z" fill="white" stroke="white" stroke-width="0.25"/>
</svg>
